<?xml version="1.0" standalone="no"?>
<!DOCTYPE svg PUBLIC "-//W3C//DTD SVG 20010904//EN"
 "http://www.w3.org/TR/2001/REC-SVG-20010904/DTD/svg10.dtd">
<svg version="1.0" xmlns="http://www.w3.org/2000/svg"
 width="800.000000pt" height="800.000000pt" viewBox="0 0 800.000000 800.000000"
 preserveAspectRatio="xMidYMid meet">
<metadata>
Created by potrace 1.11, written by Peter Selinger 2001-2013
</metadata>
<g transform="translate(0.000000,800.000000) scale(0.100000,-0.100000)"
fill="#000000" stroke="none">
<path d="M3964 6896 c-109 -333 -293 -674 -515 -951 -90 -113 -327 -349 -439
-439 -95 -75 -291 -210 -360 -247 -25 -13 -47 -26 -50 -29 -12 -12 -193 -101
-281 -138 -340 -145 -740 -233 -1072 -236 l-68 -1 -10 -40 c-6 -22 -17 -62
-25 -90 -18 -66 -51 -226 -59 -294 -4 -30 -8 -61 -10 -71 -12 -63 -26 -355
-17 -377 2 -7 11 -13 19 -13 25 0 283 -100 390 -152 309 -148 591 -348 820
-583 147 -150 164 -169 265 -304 225 -297 395 -644 493 -1006 31 -112 30 -108
56 -255 29 -167 40 -276 43 -411 1 -38 6 -73 11 -78 19 -17 284 -78 418 -96
27 -4 57 -8 66 -10 70 -13 364 -26 378 -16 5 3 21 44 36 91 140 431 415 860
756 1184 30 28 62 58 71 67 85 81 306 242 453 331 67 40 288 153 352 179 254
105 528 181 730 204 33 4 69 9 80 11 34 6 197 18 263 18 46 1 63 5 67 16 37
125 86 358 99 475 13 109 18 179 20 277 l3 107 -66 22 c-554 182 -1058 537
-1409 994 -34 44 -65 85 -70 90 -76 99 -254 415 -317 565 -76 182 -162 474
-189 645 -2 17 -7 50 -11 75 -4 25 -8 56 -10 70 -6 33 -15 157 -20 254 -2 44
-8 83 -12 87 -9 9 -175 51 -288 73 -159 31 -313 47 -477 51 l-97 2 -17 -51z
m236 -1520 c112 -15 265 -61 378 -113 399 -183 699 -561 781 -983 26 -130 30
-172 27 -305 -5 -221 -48 -399 -144 -594 -206 -413 -589 -688 -1057 -759 -65
-9 -306 -9 -370 1 -101 15 -120 19 -218 48 -112 34 -215 80 -326 148 -83 50
-78 46 -173 125 -245 205 -412 502 -473 846 -14 76 -14 326 0 415 13 85 55
247 75 290 107 236 178 344 320 485 224 225 494 357 815 400 59 8 297 6 365
-4z"/>
<path d="M3727 6934 c-1 -1 -29 -4 -62 -7 -57 -5 -160 -21 -215 -32 -14 -3
-38 -8 -55 -10 -47 -9 -260 -66 -272 -73 -6 -4 -13 -67 -17 -153 -3 -80 -8
-152 -10 -160 -3 -8 -7 -41 -11 -74 -7 -77 -13 -119 -25 -175 -5 -25 -12 -56
-14 -70 -2 -14 -12 -54 -21 -90 -9 -36 -18 -72 -20 -80 -7 -33 -59 -189 -91
-273 -19 -49 -33 -91 -31 -93 8 -8 211 178 302 277 188 203 354 447 463 678
42 91 132 316 132 333 0 6 -46 8 -53 2z"/>
<path d="M5676 5073 c73 -91 197 -219 295 -304 34 -30 67 -59 73 -64 33 -31
176 -135 185 -135 6 0 11 -4 11 -8 0 -4 14 -17 32 -27 154 -96 273 -160 396
-214 100 -45 248 -101 266 -101 4 0 5 17 2 38 -3 20 -8 60 -11 87 -11 97 -16
131 -41 251 -22 111 -67 281 -76 288 -1 2 -64 6 -138 9 -285 12 -557 63 -815
151 -55 18 -124 43 -153 55 -29 11 -55 21 -59 21 -3 0 12 -21 33 -47z"/>
<path d="M1065 3748 c2 -18 6 -60 9 -93 3 -33 8 -71 10 -85 3 -14 7 -43 11
-65 3 -22 7 -47 10 -55 2 -8 6 -26 9 -40 8 -49 37 -166 57 -232 l20 -68 77 -1
c318 -4 666 -71 981 -190 58 -21 106 -39 109 -39 10 0 -72 95 -172 198 -181
187 -364 332 -581 461 -135 81 -426 213 -517 236 -24 6 -26 5 -23 -27z"/>
<path d="M5054 2309 c-146 -127 -287 -273 -389 -404 -60 -78 -175 -242 -175
-250 0 -3 -19 -35 -41 -72 -70 -113 -202 -406 -225 -497 -6 -27 -6 -27 32 -22
22 3 64 8 94 11 156 17 362 60 506 106 l31 10 3 92 c1 51 3 110 5 132 11 123
31 282 40 315 2 8 7 30 10 47 19 114 86 345 139 482 20 52 35 96 33 98 -2 1
-30 -20 -63 -48z"/>
</g>
</svg>
